/* XPM */
static char *_d0a09e073964819c2181c841fb8608eesd59FmFoVQOIwj8[] = {
/* columns rows colors chars-per-pixel */
"64 64 30 1 ",
"  c #232323",
". c #373737",
"X c gray23",
"o c #4B371B",
"O c #4F3B2B",
"+ c #5F4323",
"@ c #574333",
"# c #5F4B37",
"$ c #774F2B",
"% c #7F532F",
"& c #67533F",
"* c #434343",
"= c gray28",
"- c #4B4B4B",
"; c gray31",
": c gray34",
"> c #5B5B5B",
", c #6F5743",
"< c #775F4B",
"1 c #7B634F",
"2 c gray39",
"3 c gray42",
"4 c #6F6F6F",
"5 c #777777",
"6 c gray50",
"7 c #836B4B",
"8 c #836B57",
"9 c #838383",
"0 c #8B8B8B",
"q c #939393",
/* pixels */
"2>22>323233222323222222222222232223222;=422222;22222222222222>22",
"22222222322222222222222222222332;22322;=4222222;22>2222222222>22",
"2>222223322232222222222222222225 -2222;=422322;.222222222222>222",
"222>2222233322222222222222222332062222;=52223325222322222222222>",
"22222222222322322222222222222222323222;=5222222222222233322222>>",
"22222222222222222222222222222222222333;=522222222222222232222222",
";;-;;;;;;;;;;;;;;;;;;;;;;;;;;;;-;;;;;;;=;;;;;;;;;;;;;;;;;;;;;;;;",
"==***==*=======================***==============================",
"44445544444444454444444444444454445544;=544455555555455544555554",
"22222222222222222222222222222222222222;=522223222322223222233222",
"2222222222222222223322222222222;222222;=522222222332232222222222",
"22222222222322232222222222222222;22222;=4222222:2222223222222222",
"2222222222222222222222222222232;.22222;=5222225 -222333222222222",
">2222222222222222222222222222222522222;=5>2222295223222222>22222",
"2222222222232222222>2222>2222222222222;=422222222222222222222222",
"222222223222222222222222>2222222222222;*422222322222222222222222",
">>2222233222232222222222>2222222222222;*422322222222222222222222",
"222>2222222232222222222222222222222222;*423322223222222322222322",
"22>222222222222223:>232>22222222222222;*422222232222223222222232",
"222222232223222223*o@>3<43222222222222;*422222222222233222222223",
"222222222222222223>O+&2,<2222222222222;*423222322222222222222222",
">2222222322232222222#22222222222222222;*422222222222222233222222",
"22222222222222223222222223222222222222;=422322232222222223332222",
"22222222222232232222223222222222222322;=522222222222222222232222",
"22222222222222232322233222232222232322;=423222232222222222>22222",
"22222222222222222222222222322233233323;=4322222232222222222:3222",
"22222223223222222222222222222232223222;=422222225222222>2223:22>",
"2222>3222232222222222322232222<1322222;=423222<7822222222222:2>2",
"22222:322322222222232222222222&%122222;=522322343222222322>22>22",
"222222>42222222222222232223223<,122222;=52232233222222222>2222:2",
"2222232>422222222222322222222333322222;=5222333222222222222>>22:",
":3223232>322222222223#2222332332222222;=523223322332222222222223",
"2>322222>42222332>223:$22222223;222222;=532323:32322222>22222222",
"2>3222222>322332222222<222222222;22222;=5233233:233222222:222222",
"22>3222222>33322>22222332222222-.22222;=422223;.222232222>:32>22",
"222>3222222:322222222222222222225;2222;=5222223q23222222222:2222",
"2222:3222222:322>22>222222222222222222;=4233222222222222223>3222",
"22332232222222222222222222222222233222;=52222222222222222222>322",
";:;-;-;;;--;;;----;;-;;-;;;;;;;;;;;;;;;=;;;;;;;;;;-----;;;-;;=:;",
"==*=*===*=***=**=*=*****========================**********=**=*-",
"54454444545455444544444544555555555554;=444544554544454445445553",
">3222>22222222222222222222232222322222;=422222222>2>222222232222",
":2222222222222>2222222223233223:322322;=5222222:2222222222222222",
"2>322>22222222222222222222232222:32222;=4222224X2222322222322222",
"22222>2222222222222222222322322; 32222;=422222422322222222322222",
"22>222222222>2222323232222222222532232;=422222323322223222222222",
"22222>22222>22>>2232222222222222222222;=522222322222232222222222",
"22>22222222222222232322222222222222223;=52222222222222>223222222",
"22222222222222222323322222322222222222;=522222223222322222222232",
"22222222222222222333223222222222222222;=422222222222222222222222",
"222222233222232323322233222>2222222222;=422222222322232222222223",
"22322232>32323323323223322222>2>222222;=422222222222222222222222",
"22333222222222222233322222>22222222222;=422222222222232222222222",
"22333322222222222332222222>222>2222222;=522232322222222222222222",
"222>222222222222233223222>2>>222222223;=522223232222222222>22222",
"22222222222222222322222322222222322232;=422232322232222222222222",
"22222222232222222222222222222222222222;=422222232332222222>22222",
"22222223232232222222232222222222222232;=5222222233222222>>222222",
"22222222222233222222223222222222222222;=422222223222222222222222",
"22222322222223222222>22222222222222222;=422222222222>22222>22222",
"222222222222222222222>>>22222222222222;=5222222222222222222>2222",
">>222>22222222222222222>22222222222322;=5222222222222222222>>222",
">2222>22322232222222222222222222222223;=422222222222222222222222",
"22222222232323222222222222222222222222;=522232222222222222222222"
};
