/* XPM */
static char *_1503b953ce84849c9577daafe88f5ffffh9ijl69lzv8Jrl[] = {
/* columns rows colors chars-per-pixel */
"64 64 22 1 ",
"  c #0B0B0B",
". c #1F170B",
"X c #131313",
"o c #1B1B1B",
"O c #2F1B0B",
"+ c #372313",
"@ c #332B13",
"# c #3F2F17",
"$ c #3F2B1B",
"% c #232323",
"& c #272727",
"* c #2F2F2F",
"= c #373737",
"- c gray23",
"; c #432F1B",
": c #4B371B",
"> c #533F1F",
", c #5F4323",
"< c #6B4727",
"1 c #434343",
"2 c #4B4B4B",
"3 c gray31",
/* pixels */
"++@++###+O&%ooOOO+#+#;;###++++Oo,:$+++++@++@+#+OXo::;;+++#;;;#@@",
"+++++$;#+.&%ooooOOOO+###;###++.o>:#++++++++++@+OXo::$;;++#;#+##@",
"+++#++#++O%ooXXoo%%OOO+@@#;;++.o::;#+++++++++++OXo>:$##;;#;####@",
"@#+#####+.%o::::oo%%%o++@@###+Oo:;#;#@+++++++++OXo:;#@@#;;;#;;;@",
"++++##@++.%o:,:##;o%%%o++@#+++Oo:#+#;;@++@+++++OX%::#@++##;#;;;#",
"++++#;@++O%o>:;##;:+%%%o#+$#+OO%>;+++++@@@++++++O&::#@++++@#;###",
"++++@@@++O%%::#####++XooOOOOO.Xo:OOOOOOOOOOOO++.O&:+++###@@#;;;#",
"#++$#+++OO*%::#$++OOOOooooOOOXoo%&&&*&o.OOO.....=&%OOOOO+OO+#;##",
"O++++OO..o&%o+O....OOXooo%o%&&oX%%oo%&&&%%o%&&*&*&o%%O.OOOOOOOOO",
"oOOO.O%=*&&ooXo%%oooo:,,:;;ooooX,,::::+%ooo<,:;&&%ooXoooooooo%&o",
"o%%*&**&%%ooXX,::,>>:>,>::;;+oX:,:;##;+XoX<,>:;+ooX X<::::::::oo",
">::>>;%o;:oX ,,:::;;;##;;####+X::;#++#OXo:,:#;+O%X :<<>;;;:::;;:",
";;:::;+o;,#XX>:#+$#####;#++#;+ X;;#+#$OXo;#;#$OXoX,,,;##+###$++#",
"####+#+ ::;OX>:+++++##+###+++$OX:;;##;+X%o+##+OoX,<:;###+##++#$+",
"######++o:;Oo:;+++++######;;;+O X>:;;;$O%o%++OXo:,>:######+++#;#",
"#;;#+#++X,:Oo;;++@+@######;;;#+ X::##++++oo%o.Xo>,;####+#;+++@#;",
";:####$#;,;Oo::+++@##++;;;#++$O  ::##++++Ooo%%oX,,;#######+@@@#;",
";;+#;##+#;#Oo;:#++#;;;##+#;;+$O  ::#+++++++;:ooX,>;##+##;###@+#;",
"#;#++##++##O&;;:@@#+#;##++;;;#O ;:;++@@+++@;:+XX>:;+#;;;;##+@@+#",
"#;++++#++#+OoX,:;;#+@##+++@;;$OX,,;++++@+++@#+ X::;##;;;###@####",
";##+#;#++++Xo:>:;;#@@##+++@###OX::#+#+@@##@@#+ o::#######++$#;#;",
";##;#++++++Xo::;##;;###++@#;:+O%::++++@;;;#;;+Oo::+########+###;",
"####++++@@OXo,:#+;;#####;;#+:+.X::$+++@##;;;;+.%::###;;##;######",
"#####++++@OXo,:+####;;;;#@@+;+.::#+++++#+#;;;+.o::#$$##::;#####+",
"+#$$##@+++O&:>;$;###;;;#++++#OX::#++#++##+###O.%:;####;:;######+",
"++##+#@@@#O%;:;#######++++++OO&:,:+++++#;###+Oo&oO++#;;;;###;;;+",
"++###++#;+O&o;#+#++##+++@@++OX%::$+++++##+OOOO-&%%.OO++###++#;;+",
"+++#++@##+O%o:$+++++OOOOOOOOX%oX+OOO++++OOOo-*&%ooooOOOOOOOOO+++",
"+++#$@@$+OO%%o+OOO.....OOOOX%oXX&&..OOOOOX*&&%oXXXooo%o%o%%oOOOO",
"OO+###++O.XooXoo%o%o&%%%%%%oXXX &%%%%%o%oo%oooX :<:#;ooooo%oo%%O",
"ooO++OO..Xoo,>:::::>:::::XoX:,:>::oooooX,,>::X ;,,;#:::>:;#:oooo",
"XXooOOO%ooX,,:::;;:::;;;;+  ,>:#:::;#;>,,>;+#O :>;##;;;:;#;;:>:X",
":>:;::;%%o%,:;;;###;#+++++.%;$###$#::>,>;#+++OO::$########;;####",
":::;;::#+o%>:;;:;####+++++O&%;;#++#:;:::#++++OO::#++#;#@@;#####;",
"##;##;;;+Oo;:;;;:;##++++++O.%::####;;##@;#+##O.:;+++@@@++@####+#",
"++##;;###+.o:;#;;##++@@@@++O%o:;#####++@:##;#O&:;##++++++@##$##+",
"++#;#;##+OOo::#;###;#++@@+++Oo;;#++#@@+@@@;#+O%:;;#OO+#+@++;#+##",
"+#+##;;#O.%o:;##+###;#+#@@@@O%#$++++@+++++;#+O%%:;#O%;:##@;##+##",
"+##+##;+..&o,:#++#++#;#####$O%o:$+++@#+++++##O*&:#+O%>>;;@@@@;##",
"#;;####+.&oX,:#+##+++####;++O%o>:#++@####++++O&%:$OO%>>;+++@$##;",
"++#####+O&X,>;;###@@@++#;:##Ooo::#@@@;;;#++++O%%:;OO%::#+++@####",
"++++###OO%o,:;;;;;#$@++#####O.o>;##;@@@###+##O&o>:OO%o:+++@;####",
"##+#;#+O.o,,;##;::;#@@@#++++O.>:####++@@##;;+O&o>#OO%o:$++;;#$#;",
"##++#$+.*%>:#++;#;:#######$+OO:;++##+++@@+##+O*&;+.*%o>#+#;#+###",
"$#++++O.=%:#+++$++#+##+++++OO%>:+++OO..+OO+++O=&$O.*%o:;###++#$#",
"OOOOOO.1&%+++OO...OOOOOOO..O&&:#OOOOO&%OO.O++.*&*O.&%o+++++#+OOO",
"OOO.OO2-&%%+O.O*&&&%oOOOO.&%o%oOO=%%%%%%o&&+O.&**&&&%oo+OOOOOOOO",
"o&&&113=*%%&o%%%%ooXoooo%%oooXXX*&oo,>;#oooo*&*&&*&%ooXXoo%%o%&&",
"::::*=*&&%%o%ooXX,::::::::::;#;X&%o,,::::::::#%%%%%ooXXXXXoo,>::",
"$$#OO**&%%%oXXX >>::#++#;;#;;;#+&oX<:;;;::;:;#+O&%oXX  ,:::::::#",
"OOOO=*&%%ooX  ,>>;;#$++++#;;##+O%o,,;;;#;#+@@+O.%%oXX ,,#;:;##;+",
"OO**&&%%ooX  <,:#$+@#++++#;:##$O%o,:;;;;;#+++++O%%oX :#++$##+OOO",
"&&&%%%oooXX  ,:;++++@++++++;;#+O%o,:;##;;#++++++O%oXXXO.OOOO.OO*",
"%ooooooooXX ,>;#+++++@++@++#:;#O%o,:####;@@+++O+O%oXXXXoo%OO.&%%",
"XXX:XXXXXX  >;+##++++@@@@@+###+O&,>#@@@#+#@++++OOoo ,#XXoooooooo",
"::,>>::#XXX ,;++#++#####@++#;#OO&>:+++@###@@@@+O.oX:,::::::>:>::",
"$;;;;::;OoXX>:####+##+####+#;#OO&:;++++@#####++O.%o,:#;;:::::::#",
"###++###+ooX:::#+######+@##;#+O&*>;++++@###;##$OO%X>;+#+;:#+++##",
";;##+###+O%o::#######+#+@;::#+O%%>;++++@;##;;#$OO%X:@@##;;#####;",
";##;###++O%%,:###;;##+++@;;;#+.%%>;++++@####@++OO&X;+@;#$####;##",
"####+++++O%o>:;#+@###++@@##;#OOo%::+++++#+##@++OO%o;+#;#++##+###",
"@###++##+.%%;;##+@###++#+#;:;OOo%>:++++#;$##@++OO%o:###+#######@",
"@@:###$;#.&%o:#++@;+++##+;;##OOo,>;++++@;@+@;@+O.%o>;######;#;@+",
"@@@####;#O*&%++++@;###;;###+++Oo,:#++++@++++@@+O.%o,;##+++#;:;@+"
};
